<svg width="48" height="48" viewBox="0 0 48 48" fill="none" xmlns="http://www.w3.org/2000/svg">
<circle cx="24" cy="24" r="23.5" stroke="#868686"/>
<path fill-rule="evenodd" clip-rule="evenodd" d="M33.6001 24.0295C33.6001 18.7117 29.1224 14.3999 23.6001 14.3999C18.0778 14.3999 13.6001 18.7117 13.6001 24.0295C13.6001 28.8358 17.2563 32.8196 22.0376 33.5427V26.814H19.4979V24.0295H22.0376V21.908C22.0376 19.495 23.5309 18.161 25.8148 18.161C26.909 18.161 28.0537 18.3493 28.0537 18.3493V20.7193H26.7921C25.5505 20.7193 25.1622 21.4613 25.1622 22.224V24.0295H27.9354L27.4925 26.814H25.1626V33.5435C29.9438 32.8209 33.6001 28.837 33.6001 24.0295Z" fill="#868686"/>
</svg>
