<svg width="48" height="48" viewBox="0 0 48 48" fill="none" xmlns="http://www.w3.org/2000/svg">
<circle cx="24" cy="24" r="23.5" stroke="#868686"/>
<path d="M27.7666 15.2049C28.8707 15.2081 29.9287 15.6318 30.7095 16.3837C31.4902 17.1355 31.9303 18.1543 31.9336 19.2175V27.2419C31.9303 28.3052 31.4902 29.324 30.7095 30.0758C29.9287 30.8276 28.8707 31.2514 27.7666 31.2546H19.4336C18.3294 31.2514 17.2715 30.8276 16.4907 30.0758C15.71 29.324 15.2699 28.3052 15.2666 27.2419V19.2175C15.2699 18.1543 15.71 17.1355 16.4907 16.3837C17.2715 15.6318 18.3294 15.2081 19.4336 15.2049H27.7666ZM27.7666 13.6001H19.4336C16.2251 13.6001 13.6001 16.1279 13.6001 19.2175V27.2419C13.6001 30.3316 16.2251 32.8594 19.4336 32.8594H27.7666C30.9751 32.8594 33.6001 30.3316 33.6001 27.2419V19.2175C33.6001 16.1279 30.9751 13.6001 27.7666 13.6001Z" fill="#868686"/>
<path d="M29.0161 19.2162C28.7689 19.2162 28.5272 19.1457 28.3217 19.0134C28.1161 18.8811 27.9559 18.6931 27.8613 18.4732C27.7667 18.2532 27.7419 18.0112 27.7901 17.7777C27.8384 17.5442 27.9574 17.3297 28.1322 17.1614C28.3071 16.9931 28.5298 16.8784 28.7723 16.832C29.0147 16.7855 29.2661 16.8094 29.4945 16.9005C29.7229 16.9916 29.9181 17.1459 30.0555 17.3438C30.1928 17.5417 30.2661 17.7745 30.2661 18.0125C30.2665 18.1707 30.2344 18.3274 30.1717 18.4736C30.109 18.6198 30.0169 18.7526 29.9008 18.8644C29.7847 18.9763 29.6467 19.0649 29.4949 19.1253C29.3431 19.1857 29.1804 19.2166 29.0161 19.2162ZM23.5996 20.0184C24.2589 20.0184 24.9034 20.2067 25.4516 20.5594C25.9998 20.9121 26.427 21.4135 26.6793 22C26.9316 22.5866 26.9977 23.232 26.869 23.8547C26.7404 24.4774 26.4229 25.0493 25.9567 25.4983C25.4905 25.9472 24.8966 26.2529 24.2499 26.3768C23.6033 26.5006 22.9331 26.4371 22.3239 26.1941C21.7148 25.9512 21.1942 25.5397 20.8279 25.0118C20.4616 24.484 20.2661 23.8633 20.2661 23.2284C20.2671 22.3774 20.6186 21.5614 21.2435 20.9596C21.8685 20.3578 22.7158 20.0193 23.5996 20.0184ZM23.5996 18.4136C22.6107 18.4136 21.644 18.696 20.8218 19.2251C19.9995 19.7541 19.3587 20.5061 18.9802 21.3859C18.6018 22.2657 18.5028 23.2338 18.6957 24.1678C18.8886 25.1018 19.3648 25.9597 20.0641 26.633C20.7633 27.3064 21.6543 27.765 22.6242 27.9508C23.5941 28.1365 24.5994 28.0412 25.513 27.6768C26.4267 27.3123 27.2076 26.6952 27.757 25.9034C28.3064 25.1116 28.5996 24.1807 28.5996 23.2284C28.5996 21.9515 28.0728 20.7268 27.1351 19.8239C26.1975 18.9209 24.9257 18.4136 23.5996 18.4136Z" fill="#868686"/>
</svg>
