<svg width="20" height="21" viewBox="0 0 20 21" fill="none" xmlns="http://www.w3.org/2000/svg">
<g clip-path="url(#clip0_23_655)">
<path d="M10 20.5C10 20.5 17.5 13.3925 17.5 8C17.5 6.01088 16.7098 4.10322 15.3033 2.6967C13.8968 1.29018 11.9891 0.5 10 0.5C8.01088 0.5 6.10322 1.29018 4.6967 2.6967C3.29018 4.10322 2.5 6.01088 2.5 8C2.5 13.3925 10 20.5 10 20.5ZM10 11.75C9.00544 11.75 8.05161 11.3549 7.34835 10.6517C6.64509 9.94839 6.25 8.99456 6.25 8C6.25 7.00544 6.64509 6.05161 7.34835 5.34835C8.05161 4.64509 9.00544 4.25 10 4.25C10.9946 4.25 11.9484 4.64509 12.6517 5.34835C13.3549 6.05161 13.75 7.00544 13.75 8C13.75 8.99456 13.3549 9.94839 12.6517 10.6517C11.9484 11.3549 10.9946 11.75 10 11.75Z" fill="#868686"/>
</g>
<defs>
<clipPath id="clip0_23_655">
<rect width="20" height="20" fill="white" transform="translate(0 0.5)"/>
</clipPath>
</defs>
</svg>
