<svg width="20" height="20" viewBox="0 0 20 20" fill="none" xmlns="http://www.w3.org/2000/svg">
<g clip-path="url(#clip0_23_605)">
<path d="M3.75786e-06 3.54175C3.75786e-06 3.04447 0.197548 2.56755 0.549179 2.21592C0.900809 1.86429 1.37772 1.66675 1.875 1.66675H15.625C16.1223 1.66675 16.5992 1.86429 16.9508 2.21592C17.3025 2.56755 17.5 3.04447 17.5 3.54175V16.7017C17.5 17.0767 17.4375 17.5192 17.2025 17.9167H18.125C18.2908 17.9167 18.4497 17.8509 18.5669 17.7337C18.6842 17.6165 18.75 17.4575 18.75 17.2917V6.04175C18.75 5.87599 18.8159 5.71702 18.9331 5.59981C19.0503 5.4826 19.2092 5.41675 19.375 5.41675C19.5408 5.41675 19.6997 5.4826 19.8169 5.59981C19.9342 5.71702 20 5.87599 20 6.04175V17.2917C20 17.789 19.8025 18.2659 19.4508 18.6176C19.0992 18.9692 18.6223 19.1667 18.125 19.1667H1.87125C1.6252 19.1667 1.38157 19.1182 1.15429 19.0239C0.927015 18.9297 0.720563 18.7915 0.546753 18.6173C0.372942 18.4432 0.235185 18.2365 0.141366 18.009C0.0475481 17.7815 -0.000489332 17.5378 3.75786e-06 17.2917V3.54175ZM15 17.9167C15.4625 17.9167 15.8175 17.653 16.0663 17.3655C16.1813 17.233 16.25 17.0167 16.25 16.7017V3.54175C16.25 3.37599 16.1842 3.21702 16.0669 3.09981C15.9497 2.9826 15.7908 2.91675 15.625 2.91675H1.875C1.70924 2.91675 1.55027 2.9826 1.43306 3.09981C1.31585 3.21702 1.25 3.37599 1.25 3.54175V17.2917C1.25 17.6392 1.52875 17.9167 1.87125 17.9167H15Z" fill="white"/>
<path d="M2.5 4.16675H15V6.66675H2.5V4.16675ZM2.5 7.91675H7.5V11.6667H2.5V7.91675ZM2.5 12.9167H7.5V14.1667H2.5V12.9167ZM2.5 15.4167H7.5V16.6667H2.5V15.4167ZM8.75 7.91675H11.25V9.16675H8.75V7.91675ZM12.5 7.91675H15V9.16675H12.5V7.91675ZM8.75 10.4167H11.25V11.6667H8.75V10.4167ZM12.5 10.4167H15V11.6667H12.5V10.4167ZM8.75 12.9167H11.25V14.1667H8.75V12.9167ZM12.5 12.9167H15V14.1667H12.5V12.9167ZM8.75 15.4167H11.25V16.6667H8.75V15.4167ZM12.5 15.4167H15V16.6667H12.5V15.4167Z" fill="white"/>
</g>
<defs>
<clipPath id="clip0_23_605">
<rect width="20" height="20" fill="white"/>
</clipPath>
</defs>
</svg>
