<svg width="24" height="24" viewBox="0 0 24 24" fill="none" xmlns="http://www.w3.org/2000/svg">
<g clip-path="url(#clip0_32_663)">
<path d="M4.50943e-06 4.25C4.50943e-06 3.65326 0.237057 3.08097 0.659014 2.65901C1.08097 2.23705 1.65327 2 2.25 2H18.75C19.3467 2 19.919 2.23705 20.341 2.65901C20.763 3.08097 21 3.65326 21 4.25V20.042C21 20.492 20.925 21.023 20.643 21.5H21.75C21.9489 21.5 22.1397 21.421 22.2803 21.2803C22.421 21.1397 22.5 20.9489 22.5 20.75V7.25C22.5 7.05109 22.579 6.86032 22.7197 6.71967C22.8603 6.57902 23.0511 6.5 23.25 6.5C23.4489 6.5 23.6397 6.57902 23.7803 6.71967C23.921 6.86032 24 7.05109 24 7.25V20.75C24 21.3467 23.763 21.919 23.341 22.341C22.919 22.7629 22.3467 23 21.75 23H2.2455C1.95024 23 1.65788 22.9418 1.38515 22.8286C1.11242 22.7155 0.864676 22.5497 0.656103 22.3407C0.44753 22.1317 0.282222 21.8837 0.16964 21.6107C0.0570577 21.3377 -0.000587199 21.0453 4.50943e-06 20.75V4.25ZM18 21.5C18.555 21.5 18.981 21.1835 19.2795 20.8385C19.4175 20.6795 19.5 20.42 19.5 20.042V4.25C19.5 4.05109 19.421 3.86032 19.2803 3.71967C19.1397 3.57902 18.9489 3.5 18.75 3.5H2.25C2.05109 3.5 1.86033 3.57902 1.71967 3.71967C1.57902 3.86032 1.5 4.05109 1.5 4.25V20.75C1.5 21.167 1.8345 21.5 2.2455 21.5H18Z" fill="#868686"/>
<path d="M3 5H18V8H3V5ZM3 9.5H9V14H3V9.5ZM3 15.5H9V17H3V15.5ZM3 18.5H9V20H3V18.5ZM10.5 9.5H13.5V11H10.5V9.5ZM15 9.5H18V11H15V9.5ZM10.5 12.5H13.5V14H10.5V12.5ZM15 12.5H18V14H15V12.5ZM10.5 15.5H13.5V17H10.5V15.5ZM15 15.5H18V17H15V15.5ZM10.5 18.5H13.5V20H10.5V18.5ZM15 18.5H18V20H15V18.5Z" fill="#868686"/>
</g>
<defs>
<clipPath id="clip0_32_663">
<rect width="24" height="24" fill="white"/>
</clipPath>
</defs>
</svg>
