<svg width="37" height="35" viewBox="0 0 37 35" fill="none" xmlns="http://www.w3.org/2000/svg">
<path d="M18.9033 10.5785C19.4425 10.0478 20.3101 10.0549 20.8408 10.5941L26.6064 16.4516C26.997 16.8483 27.0949 17.4223 26.9053 17.9096C26.8532 18.1631 26.7299 18.4053 26.5332 18.6019L20.7217 24.4135C20.1867 24.9484 19.3192 24.9484 18.7842 24.4135C18.2492 23.8785 18.2492 23.0109 18.7842 22.476L22.4062 18.8539H11.4209C10.6361 18.8538 10 18.2178 10 17.433C10 16.6483 10.6362 16.0122 11.4209 16.0121H22.3291L18.8877 12.516C18.357 11.9768 18.3642 11.1092 18.9033 10.5785Z" fill="#777E90"/>
</svg>
