<svg width="37" height="35" viewBox="0 0 37 35" fill="none" xmlns="http://www.w3.org/2000/svg">
<path d="M18.0967 24.4212C17.5575 24.952 16.6899 24.9448 16.1592 24.4056L10.3936 18.5482C10.003 18.1514 9.90515 17.5775 10.0947 17.0902C10.1468 16.8367 10.2701 16.5945 10.4668 16.3978L16.2783 10.5863C16.8133 10.0513 17.6808 10.0513 18.2158 10.5863C18.7508 11.1213 18.7508 11.9888 18.2158 12.5238L14.5938 16.1459L25.5791 16.1459C26.3639 16.1459 27 16.782 27 17.5668C27 18.3515 26.3638 18.9876 25.5791 18.9877L14.6709 18.9877L18.1123 22.4837C18.643 23.0229 18.6358 23.8905 18.0967 24.4212Z" fill="#777E90"/>
</svg>
