<svg width="20" height="21" viewBox="0 0 20 21" fill="none" xmlns="http://www.w3.org/2000/svg">
<g clip-path="url(#clip0_23_658)">
<path fill-rule="evenodd" clip-rule="evenodd" d="M2.35635 1.13845C2.57507 0.920056 2.8377 0.750643 3.12685 0.641433C3.41599 0.532222 3.72504 0.485709 4.03352 0.504974C4.342 0.524239 4.64287 0.608844 4.91618 0.75318C5.18949 0.897517 5.429 1.09829 5.61885 1.3422L7.8626 4.2247C8.27385 4.75345 8.41885 5.4422 8.25635 6.0922L7.5726 8.8297C7.53725 8.97148 7.53916 9.12 7.57814 9.26083C7.61713 9.40166 7.69187 9.53002 7.7951 9.63345L10.8664 12.7047C10.9699 12.8081 11.0985 12.883 11.2395 12.922C11.3806 12.961 11.5294 12.9628 11.6714 12.9272L14.4076 12.2434C14.7284 12.1632 15.0632 12.157 15.3867 12.2252C15.7102 12.2934 16.014 12.4343 16.2751 12.6372L19.1576 14.8797C20.1939 15.6859 20.2889 17.2172 19.3614 18.1434L18.0689 19.4359C17.1439 20.3609 15.7614 20.7672 14.4726 20.3134C11.1741 19.1529 8.17919 17.2645 5.7101 14.7884C3.23421 12.3197 1.34586 9.32527 0.1851 6.0272C-0.2674 4.7397 0.13885 3.35595 1.06385 2.43095L2.35635 1.13845Z" fill="#868686"/>
</g>
<defs>
<clipPath id="clip0_23_658">
<rect width="20" height="20" fill="white" transform="translate(0 0.5)"/>
</clipPath>
</defs>
</svg>
