<svg width="48" height="49" viewBox="0 0 48 49" fill="none" xmlns="http://www.w3.org/2000/svg">
<circle cx="24" cy="24.5" r="23.5" stroke="#868686"/>
<path d="M33.4009 20.2208C33.4009 20.2208 33.2056 18.8484 32.604 18.2458C31.8423 17.4527 30.9907 17.4488 30.6001 17.4021C27.8032 17.2 23.604 17.2 23.604 17.2H23.5962C23.5962 17.2 19.397 17.2 16.6001 17.4021C16.2095 17.4488 15.3579 17.4527 14.5962 18.2458C13.9946 18.8484 13.8032 20.2208 13.8032 20.2208C13.8032 20.2208 13.6001 21.8342 13.6001 23.4438V24.9522C13.6001 26.5618 13.7993 28.1752 13.7993 28.1752C13.7993 28.1752 13.9946 29.5476 14.5923 30.1502C15.354 30.9434 16.354 30.9161 16.7993 31.0017C18.4009 31.1533 23.6001 31.2 23.6001 31.2C23.6001 31.2 27.8032 31.1922 30.6001 30.9939C30.9907 30.9472 31.8423 30.9434 32.604 30.1502C33.2056 29.5476 33.4009 28.1752 33.4009 28.1752C33.4009 28.1752 33.6001 26.5657 33.6001 24.9522V23.4438C33.6001 21.8342 33.4009 20.2208 33.4009 20.2208ZM21.5337 26.7834V21.1888L26.936 23.9958L21.5337 26.7834Z" fill="#868686"/>
</svg>
